<svg width="30" height="30" viewBox="0 0 30 30" fill="none" xmlns="http://www.w3.org/2000/svg">
<circle cx="15" cy="15" r="15" fill="#252525"/>
<g clip-path="url(#clip0)">
<path d="M20.6898 15.9257C20.2492 16.0695 19.7754 16.1137 19.3152 16.1943C19.1899 16.2162 19.0577 16.1967 18.9313 16.2142C17.9495 16.3505 17.5785 16.7437 17.4398 17.7891C17.3661 18.3456 17.2196 18.8745 16.9002 19.348C16.3606 20.1477 15.3124 20.5106 14.4152 20.1982C13.4549 19.8638 12.8731 18.9885 12.9508 17.9946C13.0207 17.0992 13.7279 16.3082 14.7211 16.0783C15.1862 15.9706 15.6687 15.9285 16.1459 15.8851C17.0365 15.8041 17.43 15.4136 17.5783 14.5378C17.6637 14.0339 17.5876 13.5585 17.4759 13.0832C17.3052 12.3567 16.7762 12.0192 15.8881 11.9545C15.4035 11.9192 14.9105 11.8489 14.4467 11.7095C13.4705 11.416 12.9022 10.5685 12.9472 9.57435C12.9866 8.70378 13.6956 7.85613 14.5472 7.66147C15.5561 7.43075 16.5604 7.83422 16.9895 8.73272C17.2147 9.20421 17.3383 9.73833 17.4265 10.2579C17.5844 11.1896 17.9545 11.551 18.8837 11.652C19.4847 11.7174 20.0971 11.7919 20.6702 11.9712C21.5405 12.2436 22.0633 13.0546 22.0631 13.956C22.063 14.8377 21.5234 15.6537 20.6898 15.9257Z" fill="#CA4245"/>
<path d="M10.4416 16.0684C9.27498 16.0685 8.32252 15.1164 8.32234 13.9499C8.32215 12.7833 9.27435 11.8307 10.4408 11.8306C11.6074 11.8304 12.5599 12.7826 12.56 13.9491C12.5602 15.1156 11.608 16.0682 10.4416 16.0684ZM5.42531 20.3064C4.25965 20.3035 3.31056 19.348 3.31348 18.1805C3.3164 17.0148 4.27179 16.0657 5.43937 16.0687C6.60503 16.0716 7.55412 17.027 7.55119 18.1946C7.54827 19.3603 6.59288 20.3094 5.42531 20.3064ZM24.5835 20.3064C23.4148 20.3131 22.4553 19.3678 22.4486 18.2035C22.442 17.0349 23.3872 16.0753 24.5516 16.0687C25.7203 16.062 26.6797 17.0071 26.6865 18.1716C26.6931 19.3402 25.7479 20.2998 24.5835 20.3064Z" fill="white"/>
</g>
<defs>
<clipPath id="clip0">
<rect width="23.3766" height="12.7823" fill="white" transform="translate(3.31177 7.59741)"/>
</clipPath>
</defs>
</svg>
