<?xml version="1.0" encoding="iso-8859-1"?>
<!-- Generator: Adobe Illustrator 21.0.0, SVG Export Plug-In . SVG Version: 6.00 Build 0)  -->
<svg xmlns="http://www.w3.org/2000/svg" xmlns:xlink="http://www.w3.org/1999/xlink" version="1.1" id="Capa_1" x="0px" y="0px" viewBox="0 0 512 512" style="enable-background:new 0 0 512 512;" xml:space="preserve" width="512" height="512">
<g>
	<path style="fill:#E1E4F9;" d="M375.984,30.059c8.284,0,15-6.729,15-15.029S384.268,0,375.984,0h-120c-8.284,0-15,6.729-15,15.029   s6.716,15.029,15,15.029h45v32.063h30V30.059H375.984z"/>
	<path style="fill:#D6DAF6;" d="M375.984,0H316v62.121h14.984V30.059h45c8.284,0,15-6.729,15-15.029S384.268,0,375.984,0z"/>
	<path style="fill:#FEB655;" d="M435.805,457.581h0.145V169.818H76.09v287.763h0.105c-0.123,0.79-0.195,1.583-0.195,2.382   C76,488.702,156.589,512,256,512C358.213,512,440.449,487.373,435.805,457.581z"/>
	<path style="fill:#FD9A2B;" d="M435.805,457.581h0.145V169.818H256V512C358.213,512,440.449,487.373,435.805,457.581z"/>
	<ellipse style="fill:#7A86E8;" cx="256" cy="170.269" rx="180" ry="52.038"/>
	<path style="fill:#4B5ADD;" d="M256,118.231v104.075c99.411,0,180-23.298,180-52.038C436,141.529,355.411,118.231,256,118.231z"/>
	<path style="fill:#7A86E8;" d="M435.95,258.936v49.291c-79.736,48.224-280.193,48.183-359.86,0v-49.291   c0.37,1.352,0.57,2.768,0.57,4.227c0,16.652,63.31,49.066,179.36,49.066s179.36-32.414,179.36-49.066   C435.38,261.704,435.58,260.288,435.95,258.936z"/>
	<path style="fill:#4B5ADD;" d="M435.38,263.164c0,16.648-63.292,49.066-179.38,49.066v32.188c54.392,0,133.791-8.273,179.95-36.19   v-49.291C435.58,260.288,435.38,261.704,435.38,263.164z"/>
	<path style="fill:#E1E4F9;" d="M375.984,60.117h-120c-8.284,0-15,6.729-15,15.029c0,4.579,0,130.705,0,135.264   c0,41.436,33.645,75.147,75,75.147s75-33.71,75-75.147v-44.086V75.147C390.984,66.846,384.268,60.117,375.984,60.117z"/>
	<path style="fill:#D6DAF6;" d="M375.984,60.117H316v225.44c41.347-0.009,74.984-33.715,74.984-75.146v-44.086V75.147   C390.984,66.846,384.268,60.117,375.984,60.117z"/>
	<path style="fill:#E1E4F9;" d="M330.98,278.925v66.75c0,8.296-6.71,15.029-15,15.029c-8.28,0-15-6.733-15-15.029v-66.75   C310.823,281.089,321.131,281.09,330.98,278.925z"/>
	<path style="fill:#D6DAF6;" d="M316,280.547v80.156c8.281-0.011,14.98-6.739,14.98-15.028v-66.75   C326.156,279.985,321.143,280.546,316,280.547z"/>
	<path style="fill:#F0725F;" d="M240.984,166.325v44.086c0,41.436,33.645,75.147,75,75.147s75-33.71,75-75.147v-44.086H240.984z"/>
	<path style="fill:#EA3D2C;" d="M316,166.325v119.232c41.347-0.009,74.984-33.715,74.984-75.146v-44.086H316z"/>
	<path style="fill:#7A86E8;" d="M435.95,354.364v50.224c-79.218,48.264-279.662,48.541-359.86,0.418V357.11   c0.15,0.848,0.22,1.727,0.22,2.618c0,16.652,63.3,49.066,179.36,49.066c116.05,0,179.35-32.414,179.35-49.066   C435.02,357.851,435.35,356.048,435.95,354.364z"/>
	<path style="fill:#4B5ADD;" d="M435.95,354.364c-0.6,1.684-0.93,3.487-0.93,5.365c0,16.636-63.181,49.002-179.02,49.064v32.188   c70.022-0.039,140.582-12.407,179.95-36.392V354.364z"/>
</g>















</svg>
